<svg width="1136" height="374" viewBox="0 0 1136 374" fill="none" xmlns="http://www.w3.org/2000/svg">
<path d="M257.731 41.2639C264.495 26.72 256.04 9.80858 240.819 5.74983C225.599 2.02931 209.702 -0.000110437 193.467 -0.000111365C177.232 -0.000112293 161.335 2.0293 146.115 5.74983C130.557 9.80858 122.439 26.3817 128.866 40.9255L169.791 131.233C178.923 151.188 206.996 151.188 216.129 131.233L257.731 41.2639Z" fill="#F7F4EF"/>
<path d="M75.0871 91.3211C66.2932 73.3949 41.2642 72.042 30.4408 88.9534C11.1617 119.056 0.000170992 154.57 0.000165837 193.128C0.000154983 274.303 50.0581 343.64 120.748 372.051C137.321 378.816 155.924 366.301 155.924 348.375L155.924 261.112C155.924 257.053 154.909 253.333 153.218 249.951L75.0871 91.3211Z" fill="#F7F4EF"/>
<path d="M386.596 193.13C386.596 154.91 375.434 119.058 356.155 88.9552C345.332 72.0437 320.641 73.3966 311.509 91.3228L232.701 250.967C231.01 254.349 229.995 258.408 229.995 262.129L229.995 348.377C229.995 366.303 248.26 378.818 264.833 372.053C336.538 343.98 386.596 274.305 386.596 193.13Z" fill="#F7F4EF"/>
<path d="M576.573 193.878C576.573 212.475 568.765 242.855 536.965 242.855C515.103 242.855 505.45 229.652 505.45 207.364C505.45 188.767 513.258 158.529 545.057 158.529C566.92 158.529 576.573 171.59 576.573 193.878ZM556.84 191.606C556.84 172.867 551.162 170.454 544.206 170.454C526.744 170.454 525.183 202.963 525.183 209.636C525.183 228.375 530.861 230.788 537.817 230.788C555.279 230.788 556.84 198.421 556.84 191.606ZM639.342 160.8C639.342 160.8 638.632 163.072 637.212 172.441C635.793 181.811 635.651 184.65 635.651 184.65C633.379 179.965 629.688 176.558 623.868 176.558C614.072 176.558 608.82 187.489 608.82 187.489L606.69 203.389C602.715 233.485 602.29 241.435 602.29 241.435C602.29 241.435 598.74 241.151 591.926 241.151C585.822 241.151 581.705 241.435 581.705 241.435C581.705 241.435 583.266 232.208 587.809 200.976C589.655 187.347 590.791 176.274 590.791 172.299C590.791 169.744 590.507 166.479 588.945 163.924L588.093 162.504L612.511 158.955L607.684 186.78C612.937 171.306 619.751 158.529 631.392 158.529C637.071 158.529 639.342 160.8 639.342 160.8ZM714.301 129.569C714.301 129.569 712.313 139.648 704.789 194.446C702.092 214.888 700.672 225.252 700.672 228.233C700.672 230.504 700.956 231.924 703.228 233.911L705.073 235.331C705.073 235.331 700.814 242.855 690.593 242.855C681.365 242.855 680.797 236.041 680.797 233.06C680.797 226.955 683.495 215.882 683.495 215.882C674.267 240.584 664.472 242.855 655.954 242.855C643.319 242.855 635.085 234.763 635.085 212.901C635.085 199.84 639.202 158.529 673.841 158.529C684.63 158.529 689.741 163.072 689.741 163.072C690.309 158.813 691.587 148.166 691.587 143.339C691.587 140.074 691.303 137.093 689.883 134.679L689.031 133.118L714.301 129.569ZM688.463 173.435C688.463 173.435 685.482 171.022 677.958 171.022C658.793 171.022 655.386 197.143 655.386 212.191C655.386 222.98 657.799 228.517 665.181 228.517C669.298 228.517 674.835 226.671 682.643 214.888L688.463 173.435ZM784.372 169.176C784.372 187.206 766.2 220.709 755.411 237.602C740.079 261.878 731.987 271.532 716.513 271.532C707.144 271.532 703.737 269.828 703.737 269.828C703.737 269.828 704.588 266.563 705.298 260.742C706.15 255.064 706.15 250.521 706.15 250.521C709.415 256.767 712.822 258.897 716.513 258.897C721.34 258.897 725.173 256.767 732.981 244.843L719.069 176.416C717.933 170.738 716.371 166.621 714.668 164.775L712.68 162.504L736.672 158.955C736.672 158.955 737.24 163.782 741.073 189.193L745.474 216.166C746.609 223.832 746.609 227.807 746.467 228.943C749.023 222.838 766.058 189.193 766.058 170.454C766.058 163.64 762.225 162.078 762.225 162.078C762.225 162.078 766.058 158.529 773.724 158.529C783.946 158.529 784.372 165.485 784.372 169.176Z" fill="#F7F4EF"/>
<path d="M825.786 233.593C820.202 233.593 815.375 232.955 811.305 231.677C807.236 230.399 803.852 229.027 801.155 227.56L800.303 219.397C803.71 221.29 807.449 222.899 811.518 224.224C815.588 225.549 820.225 226.211 825.431 226.211C831.156 226.211 835.534 225.241 838.562 223.301C841.591 221.314 843.105 218.38 843.105 214.499V213.506C843.105 210.998 842.561 208.939 841.472 207.33C840.384 205.674 838.444 204.254 835.652 203.071C832.86 201.841 828.909 200.705 823.798 199.664C817.978 198.434 813.387 197.014 810.028 195.405C806.668 193.749 804.278 191.667 802.859 189.159C801.439 186.651 800.729 183.551 800.729 179.86V179.151C800.729 173.425 802.74 169.048 806.762 166.019C810.832 162.943 816.913 161.405 825.005 161.405C830.399 161.405 835.06 162.044 838.988 163.322C842.916 164.599 846.11 166.043 848.571 167.652L849.422 175.105C846.394 173.259 842.939 171.721 839.059 170.491C835.179 169.213 830.731 168.574 825.715 168.574C821.882 168.574 818.735 169 816.274 169.852C813.861 170.704 812.062 171.934 810.879 173.543C809.744 175.152 809.176 177.045 809.176 179.222V179.86C809.176 182.321 809.72 184.38 810.808 186.036C811.897 187.645 813.813 189.017 816.558 190.153C819.303 191.288 823.088 192.329 827.915 193.276C833.877 194.506 838.586 195.926 842.04 197.535C845.495 199.144 847.955 201.202 849.422 203.71C850.889 206.218 851.623 209.412 851.623 213.293V214.57C851.623 220.817 849.422 225.549 845.022 228.767C840.621 231.984 834.209 233.593 825.786 233.593ZM885.214 233.451C880.15 233.451 876.033 232.694 872.863 231.18C869.74 229.666 867.445 227.347 865.978 224.224C864.558 221.101 863.848 217.22 863.848 212.583V167.439H872.366V211.589C872.366 216.463 873.478 220.083 875.702 222.449C877.974 224.768 881.783 225.927 887.13 225.927C889.969 225.927 892.714 225.596 895.364 224.934C898.061 224.271 900.593 223.325 902.959 222.094L902.178 229.618C899.954 230.801 897.352 231.724 894.37 232.387C891.389 233.097 888.337 233.451 885.214 233.451ZM851.994 171.13V164.173H902.178L901.398 171.13H851.994ZM863.919 165.167L863.848 145.292L872.579 143.944L872.153 165.167H863.919ZM918.032 162.896V206.336C918.032 210.406 918.576 213.955 919.664 216.984C920.8 219.965 922.645 222.284 925.201 223.94C927.756 225.549 931.187 226.353 935.493 226.353C939.515 226.353 942.97 225.596 945.856 224.082C948.79 222.52 951.156 220.414 952.955 217.765C954.8 215.067 956.03 212.062 956.646 208.75L958.42 215.067H956.504C955.888 218.427 954.587 221.527 952.6 224.366C950.659 227.158 948.009 229.405 944.65 231.109C941.337 232.765 937.291 233.593 932.512 233.593C926.975 233.593 922.503 232.552 919.096 230.47C915.737 228.388 913.276 225.383 911.714 221.456C910.153 217.528 909.372 212.772 909.372 207.188V162.896H918.032ZM964.737 162.896V232.103H956.149L956.575 214.996L956.149 214.57V162.896H964.737ZM1002.13 233.593C993.801 233.593 987.436 231.038 983.035 225.927C978.634 220.769 976.434 213.316 976.434 203.568V191.572C976.434 181.777 978.634 174.324 983.035 169.213C987.483 164.055 993.99 161.476 1002.56 161.476C1006.96 161.476 1010.81 162.281 1014.13 163.89C1017.48 165.451 1020.18 167.699 1022.22 170.633C1024.25 173.519 1025.51 176.926 1025.98 180.854H1028.82L1025.98 188.733C1025.79 184.285 1024.75 180.57 1022.86 177.589C1020.96 174.608 1018.45 172.36 1015.33 170.846C1012.26 169.284 1008.78 168.503 1004.9 168.503C998.509 168.503 993.588 170.396 990.133 174.182C986.726 177.968 985.023 183.528 985.023 190.863V204.065C985.023 211.305 986.726 216.842 990.133 220.675C993.54 224.46 998.485 226.353 1004.97 226.353C1008.8 226.353 1012.18 225.596 1015.12 224.082C1018.05 222.52 1020.47 220.414 1022.36 217.765C1024.3 215.067 1025.6 211.991 1026.26 208.537L1028.53 214.925H1026.05C1025.43 218.332 1024.13 221.456 1022.15 224.295C1020.21 227.134 1017.58 229.405 1014.27 231.109C1010.95 232.765 1006.91 233.593 1002.13 233.593ZM1025.7 232.103L1026.19 214.783L1025.98 211.944V182.771L1026.05 180.712L1025.77 161.05V137.981H1034.28V232.103H1025.7ZM1048.95 232.103V162.896H1057.61V232.103H1048.95ZM1053.28 150.261C1051.39 150.261 1049.94 149.741 1048.95 148.699C1048 147.658 1047.53 146.168 1047.53 144.228V143.731C1047.53 141.838 1048 140.371 1048.95 139.33C1049.94 138.289 1051.39 137.768 1053.28 137.768C1055.22 137.768 1056.66 138.289 1057.61 139.33C1058.55 140.371 1059.03 141.838 1059.03 143.731V144.228C1059.03 146.168 1058.55 147.658 1057.61 148.699C1056.66 149.741 1055.22 150.261 1053.28 150.261ZM1098.64 233.806C1089.08 233.806 1081.82 231.18 1076.85 225.927C1071.88 220.627 1069.4 213.009 1069.4 203.071V191.785C1069.4 181.895 1071.88 174.324 1076.85 169.071C1081.82 163.819 1089.08 161.192 1098.64 161.192C1108.2 161.192 1115.47 163.819 1120.43 169.071C1125.4 174.324 1127.89 181.895 1127.89 191.785V203.071C1127.89 213.009 1125.4 220.627 1120.43 225.927C1115.47 231.18 1108.2 233.806 1098.64 233.806ZM1098.64 226.708C1105.36 226.708 1110.47 224.721 1113.98 220.746C1117.52 216.771 1119.3 211.045 1119.3 203.568V191.288C1119.3 183.859 1117.52 178.157 1113.98 174.182C1110.47 170.207 1105.36 168.219 1098.64 168.219C1091.92 168.219 1086.81 170.207 1083.31 174.182C1079.81 178.157 1078.06 183.859 1078.06 191.288V203.568C1078.06 211.045 1079.81 216.771 1083.31 220.746C1086.81 224.721 1091.92 226.708 1098.64 226.708Z" fill="#F7F4EF"/>
</svg>
