<svg width="1136" height="374" viewBox="0 0 1136 374" fill="none" xmlns="http://www.w3.org/2000/svg">
<path d="M257.731 41.264C264.495 26.7202 256.04 9.80871 240.819 5.74995C225.599 2.02943 209.702 1.1633e-05 193.467 1.0705e-05C177.232 9.77703e-06 161.336 2.02943 146.115 5.74995C130.557 9.8087 122.439 26.3818 128.866 40.9257L169.791 131.233C178.923 151.188 206.997 151.188 216.129 131.233L257.731 41.264Z" fill="#102426"/>
<path d="M75.0871 91.3221C66.2932 73.3959 41.2642 72.043 30.4408 88.9544C11.1617 119.057 0.000170992 154.571 0.000165837 193.129C0.000154983 274.304 50.0581 343.641 120.748 372.052C137.321 378.817 155.924 366.302 155.924 348.376L155.924 261.113C155.924 257.054 154.909 253.334 153.218 249.952L75.0871 91.3221Z" fill="#102426"/>
<path d="M386.596 193.131C386.596 154.911 375.434 119.059 356.155 88.9561C345.332 72.0447 320.641 73.3976 311.509 91.3238L232.701 250.968C231.01 254.35 229.996 258.409 229.996 262.13L229.996 348.378C229.996 366.304 248.26 378.819 264.833 372.054C336.538 343.981 386.596 274.306 386.596 193.131Z" fill="#102426"/>
<path d="M576.573 193.879C576.573 212.476 568.765 242.856 536.966 242.856C515.103 242.856 505.45 229.654 505.45 207.366C505.45 188.768 513.258 158.53 545.057 158.53C566.92 158.53 576.573 171.591 576.573 193.879ZM556.84 191.608C556.84 172.869 551.162 170.455 544.206 170.455C526.744 170.455 525.183 202.965 525.183 209.637C525.183 228.376 530.861 230.79 537.817 230.79C555.279 230.79 556.84 198.422 556.84 191.608ZM639.342 160.802C639.342 160.802 638.632 163.073 637.213 172.443C635.793 181.812 635.651 184.652 635.651 184.652C633.38 179.967 629.689 176.56 623.868 176.56C614.073 176.56 608.82 187.491 608.82 187.491L606.691 203.391C602.716 233.487 602.29 241.437 602.29 241.437C602.29 241.437 598.741 241.153 591.926 241.153C585.822 241.153 581.705 241.437 581.705 241.437C581.705 241.437 583.267 232.209 587.809 200.977C589.655 187.349 590.791 176.276 590.791 172.301C590.791 169.745 590.507 166.48 588.945 163.925L588.093 162.505L612.511 158.956L607.684 186.781C612.937 171.307 619.751 158.53 631.392 158.53C637.071 158.53 639.342 160.802 639.342 160.802ZM714.301 129.57C714.301 129.57 712.313 139.649 704.789 194.447C702.092 214.89 700.672 225.253 700.672 228.234C700.672 230.506 700.956 231.925 703.228 233.913L705.073 235.332C705.073 235.332 700.814 242.856 690.593 242.856C681.365 242.856 680.797 236.042 680.797 233.061C680.797 226.957 683.495 215.883 683.495 215.883C674.267 240.585 664.472 242.856 655.954 242.856C643.319 242.856 635.085 234.764 635.085 212.902C635.085 199.842 639.202 158.53 673.841 158.53C684.63 158.53 689.741 163.073 689.741 163.073C690.309 158.814 691.587 148.167 691.587 143.34C691.587 140.075 691.303 137.094 689.883 134.681L689.031 133.119L714.301 129.57ZM688.463 173.436C688.463 173.436 685.482 171.023 677.958 171.023C658.793 171.023 655.386 197.144 655.386 212.192C655.386 222.982 657.799 228.518 665.182 228.518C669.298 228.518 674.835 226.673 682.643 214.89L688.463 173.436ZM784.372 169.178C784.372 187.207 766.2 220.71 755.411 237.604C740.079 261.879 731.987 271.533 716.513 271.533C707.144 271.533 703.737 269.829 703.737 269.829C703.737 269.829 704.588 266.564 705.298 260.744C706.15 255.065 706.15 250.522 706.15 250.522C709.415 256.769 712.822 258.898 716.513 258.898C721.34 258.898 725.173 256.769 732.981 244.844L719.069 176.418C717.933 170.739 716.371 166.622 714.668 164.777L712.68 162.505L736.672 158.956C736.672 158.956 737.24 163.783 741.073 189.194L745.474 216.167C746.61 223.833 746.61 227.808 746.468 228.944C749.023 222.84 766.058 189.194 766.058 170.455C766.058 163.641 762.225 162.079 762.225 162.079C762.225 162.079 766.058 158.53 773.724 158.53C783.946 158.53 784.372 165.487 784.372 169.178Z" fill="#0C1B1D"/>
<path d="M825.786 233.595C820.202 233.595 815.375 232.957 811.305 231.679C807.236 230.401 803.852 229.029 801.155 227.562L800.303 219.399C803.71 221.292 807.449 222.901 811.518 224.226C815.588 225.551 820.225 226.213 825.431 226.213C831.157 226.213 835.534 225.243 838.562 223.303C841.591 221.316 843.105 218.382 843.105 214.501V213.508C843.105 211 842.561 208.941 841.473 207.332C840.384 205.676 838.444 204.256 835.652 203.073C832.86 201.843 828.909 200.707 823.798 199.666C817.978 198.436 813.388 197.016 810.028 195.407C806.668 193.751 804.278 191.669 802.859 189.161C801.439 186.653 800.729 183.553 800.729 179.862V179.153C800.729 173.427 802.74 169.049 806.763 166.021C810.832 162.945 816.913 161.407 825.005 161.407C830.399 161.407 835.061 162.046 838.988 163.324C842.916 164.601 846.11 166.045 848.571 167.653L849.423 175.107C846.394 173.261 842.94 171.723 839.059 170.493C835.179 169.215 830.731 168.576 825.715 168.576C821.882 168.576 818.735 169.002 816.274 169.854C813.861 170.706 812.063 171.936 810.88 173.545C809.744 175.154 809.176 177.047 809.176 179.223V179.862C809.176 182.323 809.72 184.381 810.809 186.038C811.897 187.647 813.813 189.019 816.558 190.155C819.303 191.29 823.088 192.331 827.915 193.278C833.878 194.508 838.586 195.928 842.04 197.537C845.495 199.146 847.956 201.204 849.423 203.712C850.889 206.22 851.623 209.414 851.623 213.295V214.572C851.623 220.819 849.423 225.551 845.022 228.769C840.621 231.986 834.209 233.595 825.786 233.595ZM885.214 233.453C880.15 233.453 876.034 232.696 872.863 231.182C869.74 229.668 867.445 227.349 865.978 224.226C864.558 221.103 863.848 217.222 863.848 212.585V167.441H872.366V211.591C872.366 216.465 873.478 220.085 875.702 222.451C877.974 224.77 881.783 225.929 887.13 225.929C889.97 225.929 892.714 225.598 895.364 224.936C898.062 224.273 900.593 223.327 902.959 222.096L902.178 229.62C899.954 230.803 897.352 231.726 894.37 232.389C891.389 233.098 888.337 233.453 885.214 233.453ZM851.994 171.132V164.175H902.178L901.398 171.132H851.994ZM863.919 165.169L863.848 145.294L872.579 143.946L872.153 165.169H863.919ZM918.032 162.898V206.338C918.032 210.408 918.576 213.957 919.664 216.986C920.8 219.967 922.646 222.286 925.201 223.942C927.756 225.551 931.187 226.355 935.493 226.355C939.515 226.355 942.97 225.598 945.856 224.084C948.79 222.522 951.156 220.416 952.955 217.766C954.8 215.069 956.03 212.064 956.646 208.752L958.42 215.069H956.504C955.889 218.429 954.587 221.528 952.6 224.368C950.66 227.16 948.01 229.407 944.65 231.111C941.337 232.767 937.291 233.595 932.512 233.595C926.975 233.595 922.504 232.554 919.096 230.472C915.737 228.39 913.276 225.385 911.714 221.458C910.153 217.53 909.372 212.774 909.372 207.19V162.898H918.032ZM964.738 162.898V232.105H956.149L956.575 214.998L956.149 214.572V162.898H964.738ZM1002.13 233.595C993.801 233.595 987.436 231.04 983.035 225.929C978.634 220.771 976.434 213.318 976.434 203.57V191.574C976.434 181.779 978.634 174.326 983.035 169.215C987.483 164.057 993.99 161.478 1002.56 161.478C1006.96 161.478 1010.81 162.283 1014.13 163.891C1017.48 165.453 1020.18 167.701 1022.22 170.635C1024.25 173.521 1025.51 176.928 1025.98 180.856H1028.82L1025.98 188.735C1025.79 184.287 1024.75 180.572 1022.86 177.591C1020.96 174.61 1018.46 172.362 1015.33 170.848C1012.26 169.286 1008.78 168.505 1004.9 168.505C998.509 168.505 993.588 170.398 990.133 174.184C986.726 177.969 985.023 183.53 985.023 190.864V204.067C985.023 211.307 986.726 216.844 990.133 220.677C993.541 224.462 998.486 226.355 1004.97 226.355C1008.8 226.355 1012.19 225.598 1015.12 224.084C1018.05 222.522 1020.47 220.416 1022.36 217.766C1024.3 215.069 1025.6 211.993 1026.26 208.539L1028.53 214.927H1026.05C1025.43 218.334 1024.13 221.458 1022.15 224.297C1020.21 227.136 1017.58 229.407 1014.27 231.111C1010.95 232.767 1006.91 233.595 1002.13 233.595ZM1025.7 232.105L1026.19 214.785L1025.98 211.946V182.773L1026.05 180.714L1025.77 161.052V137.983H1034.28V232.105H1025.7ZM1048.95 232.105V162.898H1057.61V232.105H1048.95ZM1053.28 150.263C1051.39 150.263 1049.94 149.742 1048.95 148.701C1048 147.66 1047.53 146.17 1047.53 144.23V143.733C1047.53 141.84 1048 140.373 1048.95 139.332C1049.94 138.291 1051.39 137.77 1053.28 137.77C1055.22 137.77 1056.66 138.291 1057.61 139.332C1058.55 140.373 1059.03 141.84 1059.03 143.733V144.23C1059.03 146.17 1058.55 147.66 1057.61 148.701C1056.66 149.742 1055.22 150.263 1053.28 150.263ZM1098.64 233.808C1089.08 233.808 1081.82 231.182 1076.85 225.929C1071.88 220.629 1069.4 213.011 1069.4 203.073V191.787C1069.4 181.897 1071.88 174.326 1076.85 169.073C1081.82 163.82 1089.08 161.194 1098.64 161.194C1108.2 161.194 1115.47 163.82 1120.43 169.073C1125.4 174.326 1127.89 181.897 1127.89 191.787V203.073C1127.89 213.011 1125.4 220.629 1120.43 225.929C1115.47 231.182 1108.2 233.808 1098.64 233.808ZM1098.64 226.71C1105.36 226.71 1110.47 224.723 1113.98 220.748C1117.52 216.773 1119.3 211.047 1119.3 203.57V191.29C1119.3 183.861 1117.52 178.159 1113.98 174.184C1110.47 170.209 1105.36 168.221 1098.64 168.221C1091.92 168.221 1086.81 170.209 1083.31 174.184C1079.81 178.159 1078.06 183.861 1078.06 191.29V203.57C1078.06 211.047 1079.81 216.773 1083.31 220.748C1086.81 224.723 1091.92 226.71 1098.64 226.71Z" fill="#0C1B1D"/>
</svg>
